G04*
G04 #@! TF.GenerationSoftware,Altium Limited,Altium Designer,23.6.0 (18)*
G04*
G04 Layer_Color=8421504*
%FSLAX44Y44*%
%MOMM*%
G71*
G04*
G04 #@! TF.SameCoordinates,26645B5F-4E51-4842-B81F-BC902FA672D2*
G04*
G04*
G04 #@! TF.FilePolarity,Positive*
G04*
G01*
G75*
%ADD15R,0.6000X0.2300*%
%ADD16R,0.9000X0.6500*%
%ADD17R,1.2500X1.2200*%
%ADD18R,1.1581X1.0121*%
%ADD19R,0.7500X0.9000*%
%ADD20R,0.6000X0.6200*%
%ADD21R,0.6000X0.7000*%
%ADD22R,0.6500X0.3500*%
%ADD23R,1.0121X1.1581*%
%ADD24R,1.8000X1.5000*%
%ADD25R,1.8000X1.3500*%
%ADD26R,0.8000X1.2000*%
%ADD27R,0.7600X1.2000*%
%ADD28R,0.7000X1.2000*%
%ADD29R,0.5000X0.5000*%
%ADD30R,0.6200X0.6000*%
%ADD31R,0.4500X0.6750*%
%ADD32R,0.8500X0.3000*%
%ADD33R,0.3000X0.8500*%
%ADD34R,0.9000X0.7500*%
%ADD35R,0.8621X0.7350*%
%ADD36O,1.7000X0.6000*%
%ADD37O,0.6000X1.7000*%
%ADD38R,0.7350X0.8621*%
%ADD39R,1.3000X0.5000*%
%ADD40R,0.8700X0.5000*%
%ADD41R,2.7000X1.0000*%
%ADD42R,0.8000X0.9000*%
%ADD43R,0.7565X0.8621*%
%ADD44R,0.5700X0.5500*%
%ADD45R,2.0000X1.5000*%
G36*
X262900Y142403D02*
X262900Y149253D01*
Y149482D01*
X263075Y149905D01*
X263398Y150228D01*
X263821Y150403D01*
X264050D01*
X264279D01*
X264701Y150228D01*
X265025Y149905D01*
X265200Y149482D01*
Y149253D01*
D01*
Y142403D01*
X262900D01*
D02*
G37*
G36*
X267900D02*
Y149253D01*
Y149482D01*
X268075Y149905D01*
X268398Y150228D01*
X268821Y150403D01*
X269050D01*
X269279D01*
X269701Y150228D01*
X270025Y149905D01*
X270200Y149482D01*
Y149253D01*
X270200D01*
Y142403D01*
X267900D01*
D02*
G37*
G36*
X272900D02*
Y149253D01*
Y149482D01*
X273075Y149905D01*
X273398Y150228D01*
X273821Y150403D01*
X274050D01*
X274279D01*
X274701Y150228D01*
X275025Y149905D01*
X275200Y149482D01*
Y149253D01*
D01*
Y142403D01*
X272900D01*
D02*
G37*
G36*
X277900D02*
X277900Y149253D01*
Y149482D01*
X278075Y149905D01*
X278398Y150228D01*
X278821Y150403D01*
X279050D01*
X279279D01*
X279701Y150228D01*
X280025Y149905D01*
X280200Y149482D01*
Y149253D01*
D01*
Y142403D01*
X277900D01*
D02*
G37*
G36*
X282900D02*
Y149253D01*
Y149482D01*
X283075Y149905D01*
X283398Y150228D01*
X283821Y150403D01*
X284050D01*
X284279D01*
X284701Y150228D01*
X285025Y149905D01*
X285200Y149482D01*
Y149253D01*
X285200D01*
Y142403D01*
X282900D01*
D02*
G37*
G36*
X265200Y179903D02*
Y173053D01*
Y172825D01*
X265025Y172402D01*
X264701Y172078D01*
X264279Y171903D01*
X264050D01*
X263821D01*
X263398Y172078D01*
X263075Y172402D01*
X262900Y172825D01*
Y173053D01*
X262900D01*
Y179903D01*
X265200D01*
D02*
G37*
G36*
X270200D02*
X270200Y173053D01*
Y172825D01*
X270025Y172402D01*
X269701Y172078D01*
X269279Y171903D01*
X269050D01*
X268821D01*
X268398Y172078D01*
X268075Y172402D01*
X267900Y172825D01*
Y173053D01*
D01*
Y179903D01*
X270200D01*
D02*
G37*
G36*
X275200D02*
Y173053D01*
Y172825D01*
X275025Y172402D01*
X274701Y172078D01*
X274279Y171903D01*
X274050D01*
X273821D01*
X273398Y172078D01*
X273075Y172402D01*
X272900Y172825D01*
Y173053D01*
D01*
Y179903D01*
X275200D01*
D02*
G37*
G36*
X280200D02*
Y173053D01*
Y172825D01*
X280025Y172402D01*
X279701Y172078D01*
X279279Y171903D01*
X279050D01*
X278821D01*
X278398Y172078D01*
X278075Y172402D01*
X277900Y172825D01*
Y173053D01*
X277900D01*
Y179903D01*
X280200D01*
D02*
G37*
G36*
X285200D02*
X285200Y173053D01*
Y172825D01*
X285025Y172402D01*
X284701Y172078D01*
X284279Y171903D01*
X284050D01*
X283821D01*
X283398Y172078D01*
X283075Y172402D01*
X282900Y172825D01*
Y173053D01*
D01*
Y179903D01*
X285200D01*
D02*
G37*
D15*
X259452Y155153D02*
D03*
Y159153D02*
D03*
X259452Y163154D02*
D03*
Y167154D02*
D03*
X288651Y155153D02*
D03*
Y159153D02*
D03*
X288652Y163154D02*
D03*
Y167154D02*
D03*
D16*
X268452Y165503D02*
D03*
Y156803D02*
D03*
X279652D02*
D03*
Y165503D02*
D03*
D17*
X45524Y230203D02*
D03*
X16024D02*
D03*
D18*
X28318Y211889D02*
D03*
X44858D02*
D03*
D19*
X279607Y128490D02*
D03*
X266916Y127947D02*
D03*
X251416D02*
D03*
X295106Y128490D02*
D03*
D20*
X20414Y143611D02*
D03*
X29614D02*
D03*
X21490Y79979D02*
D03*
X30690D02*
D03*
X20279Y153427D02*
D03*
X29478D02*
D03*
X22136Y70071D02*
D03*
X31336D02*
D03*
X49810Y74298D02*
D03*
X59010D02*
D03*
X73226Y148695D02*
D03*
X64026D02*
D03*
X78072Y84129D02*
D03*
X68872D02*
D03*
X58867Y84338D02*
D03*
X49667D02*
D03*
D21*
X17726Y102231D02*
D03*
Y91230D02*
D03*
X57226Y161446D02*
D03*
Y172446D02*
D03*
D22*
X17483Y119973D02*
D03*
Y111473D02*
D03*
D23*
X152653Y99488D02*
D03*
Y82949D02*
D03*
X130400Y99538D02*
D03*
Y82998D02*
D03*
X295873Y190323D02*
D03*
Y206863D02*
D03*
D24*
X286743Y34028D02*
D03*
X184242D02*
D03*
D25*
X286743Y69828D02*
D03*
X184242D02*
D03*
D26*
X207992Y70578D02*
D03*
X262993D02*
D03*
D27*
X220292D02*
D03*
X250692D02*
D03*
D28*
X240492D02*
D03*
X230492D02*
D03*
D29*
X20975Y134099D02*
D03*
X29975D02*
D03*
D30*
X31210Y91086D02*
D03*
Y100286D02*
D03*
D31*
X58842Y64384D02*
D03*
X49592D02*
D03*
D32*
X76203Y108153D02*
D03*
Y113153D02*
D03*
Y118153D02*
D03*
Y123153D02*
D03*
Y128153D02*
D03*
X37202D02*
D03*
Y123153D02*
D03*
Y118153D02*
D03*
Y113153D02*
D03*
Y108153D02*
D03*
D33*
X66702Y137653D02*
D03*
X61703D02*
D03*
X56702D02*
D03*
X51703D02*
D03*
X46702D02*
D03*
Y98653D02*
D03*
X51703D02*
D03*
X56702D02*
D03*
X61703D02*
D03*
X66702D02*
D03*
D34*
X163827Y242876D02*
D03*
Y227376D02*
D03*
X142291Y242943D02*
D03*
Y227443D02*
D03*
D35*
X89046Y214264D02*
D03*
Y226572D02*
D03*
D36*
X200354Y194702D02*
D03*
Y186702D02*
D03*
Y178702D02*
D03*
Y170702D02*
D03*
Y162701D02*
D03*
Y154701D02*
D03*
Y146701D02*
D03*
Y138702D02*
D03*
X113354D02*
D03*
Y146701D02*
D03*
Y154701D02*
D03*
Y162701D02*
D03*
Y170702D02*
D03*
Y178702D02*
D03*
Y186702D02*
D03*
Y194702D02*
D03*
D37*
X184854Y123202D02*
D03*
X176854D02*
D03*
X168854D02*
D03*
X160854D02*
D03*
X152854D02*
D03*
X144854D02*
D03*
X136854D02*
D03*
X128854D02*
D03*
Y210201D02*
D03*
X136854D02*
D03*
X144854D02*
D03*
X152854D02*
D03*
X160854D02*
D03*
X168854D02*
D03*
X176854D02*
D03*
X184854D02*
D03*
D38*
X216757Y100885D02*
D03*
X229065D02*
D03*
X241958Y101058D02*
D03*
X254266D02*
D03*
D39*
X171288Y10056D02*
D03*
X287803Y10125D02*
D03*
D40*
X184438Y10056D02*
D03*
X300953Y10125D02*
D03*
D41*
X238149Y150056D02*
D03*
Y172056D02*
D03*
D42*
X252504Y196506D02*
D03*
X237505D02*
D03*
X251612Y218289D02*
D03*
X236613D02*
D03*
X280401Y217983D02*
D03*
X265401D02*
D03*
D43*
X279080Y196411D02*
D03*
X266063D02*
D03*
D44*
X272840Y251613D02*
D03*
X298340D02*
D03*
X272840Y240012D02*
D03*
X298340D02*
D03*
D45*
X264949Y268194D02*
D03*
X44949Y268197D02*
D03*
X134949Y269020D02*
D03*
X84949Y268197D02*
D03*
X174949Y268194D02*
D03*
X224949D02*
D03*
M02*
