G04*
G04 #@! TF.GenerationSoftware,Altium Limited,Altium Designer,23.6.0 (18)*
G04*
G04 Layer_Physical_Order=4*
G04 Layer_Color=6736896*
%FSLAX44Y44*%
%MOMM*%
G71*
G04*
G04 #@! TF.SameCoordinates,26645B5F-4E51-4842-B81F-BC902FA672D2*
G04*
G04*
G04 #@! TF.FilePolarity,Positive*
G04*
G01*
G75*
%ADD72C,1.0000*%
%ADD73C,1.5240*%
%ADD74C,0.4700*%
G36*
X241742Y219677D02*
X240472Y219424D01*
X240004Y220555D01*
X238878Y221680D01*
X237408Y222289D01*
X235817D01*
X234347Y221680D01*
X233222Y220555D01*
X232613Y219085D01*
Y217494D01*
X233222Y216024D01*
X234347Y214898D01*
X235817Y214289D01*
X237408D01*
X238878Y214898D01*
X240004Y216024D01*
X240472Y217155D01*
X241742Y216902D01*
Y199722D01*
X240472Y199196D01*
X239771Y199897D01*
X238300Y200506D01*
X236709D01*
X235239Y199897D01*
X234114Y198772D01*
X233505Y197302D01*
Y195711D01*
X234114Y194241D01*
X235239Y193115D01*
X236709Y192506D01*
X238300D01*
X239771Y193115D01*
X240472Y193817D01*
X241742Y193291D01*
Y143543D01*
X132168D01*
X131207Y144503D01*
X129737Y145112D01*
X128146D01*
X126676Y144503D01*
X125715Y143543D01*
X91759D01*
X90925Y144377D01*
X89454Y144986D01*
X87863D01*
X86393Y144377D01*
X85558Y143543D01*
X74155D01*
X74152Y143548D01*
X73765Y144813D01*
X74616Y145664D01*
X75226Y147134D01*
Y148725D01*
X74616Y150196D01*
X73491Y151321D01*
X72021Y151930D01*
X70430D01*
X68960Y151321D01*
X67835Y150196D01*
X67225Y148725D01*
Y147134D01*
X67835Y145664D01*
X68686Y144813D01*
X68299Y143548D01*
X68296Y143543D01*
X58707D01*
Y158832D01*
X64226D01*
Y157650D01*
X64835Y156180D01*
X65960Y155055D01*
X67430Y154445D01*
X69022D01*
X70492Y155055D01*
X71617Y156180D01*
X72226Y157650D01*
Y158832D01*
X172482D01*
Y229272D01*
X173089Y229557D01*
X173752Y229661D01*
X174736Y228677D01*
X176207Y228068D01*
X177798D01*
X179268Y228677D01*
X180393Y229802D01*
X181002Y231272D01*
Y232864D01*
X180393Y234334D01*
X179268Y235459D01*
X177798Y236068D01*
X176207D01*
X174736Y235459D01*
X173752Y234475D01*
X173089Y234579D01*
X172482Y234864D01*
Y255321D01*
X241742D01*
Y219677D01*
D02*
G37*
G36*
X271369Y255333D02*
X270574Y255004D01*
X269449Y253878D01*
X268840Y252408D01*
Y250817D01*
X269449Y249347D01*
X270574Y248222D01*
X271369Y247893D01*
Y170897D01*
X270098Y170049D01*
X269846Y170153D01*
X268254D01*
X266784Y169544D01*
X265659Y168419D01*
X265050Y166949D01*
Y165358D01*
X265659Y163888D01*
X266784Y162762D01*
X268254Y162153D01*
X268876D01*
X269876Y161980D01*
X270020Y161153D01*
X269876Y160328D01*
X268876Y160153D01*
X268254D01*
X266784Y159544D01*
X265659Y158419D01*
X265050Y156949D01*
Y155358D01*
X265659Y153888D01*
X266784Y152762D01*
X268254Y152153D01*
X269846D01*
X270098Y152258D01*
X271369Y151410D01*
Y130811D01*
X271082Y130650D01*
X270098Y130421D01*
X269182Y131338D01*
X267712Y131947D01*
X266120D01*
X264650Y131338D01*
X263525Y130213D01*
X262916Y128743D01*
Y127151D01*
X263525Y125681D01*
X264650Y124556D01*
X266120Y123947D01*
X267712D01*
X269182Y124556D01*
X270098Y125473D01*
X271082Y125245D01*
X271369Y125084D01*
Y90972D01*
X218825D01*
X218730Y91114D01*
Y92706D01*
X218121Y94176D01*
X216996Y95301D01*
X216237Y95615D01*
X216490Y96885D01*
X217553D01*
X219023Y97494D01*
X220148Y98620D01*
X220757Y100090D01*
Y101681D01*
X220148Y103151D01*
X219023Y104276D01*
X217553Y104885D01*
X215961D01*
X214491Y104276D01*
X213366Y103151D01*
X212757Y101681D01*
Y100090D01*
X213366Y98620D01*
X214491Y97494D01*
X215250Y97180D01*
X214997Y95910D01*
X213934D01*
X212464Y95301D01*
X211339Y94176D01*
X210730Y92706D01*
Y91114D01*
X210635Y90972D01*
X190900D01*
X190760Y91310D01*
X190305Y91766D01*
X189744Y92595D01*
X190305Y93425D01*
X190760Y93881D01*
X191369Y95351D01*
Y96943D01*
X190760Y98413D01*
X189635Y99538D01*
X188165Y100147D01*
X186574D01*
X185104Y99538D01*
X184589Y99023D01*
X183759Y98540D01*
X182929Y99023D01*
X182414Y99538D01*
X180944Y100147D01*
X179352D01*
X177882Y99538D01*
X177367Y99023D01*
X176537Y98540D01*
X175708Y99023D01*
X175193Y99538D01*
X173722Y100147D01*
X173462D01*
X172936Y101417D01*
X173374Y101855D01*
X173983Y103325D01*
Y104916D01*
X173374Y106386D01*
X172249Y107512D01*
X170779Y108121D01*
X169187D01*
X167717Y107512D01*
X166592Y106386D01*
X165983Y104916D01*
Y103325D01*
X166592Y101855D01*
X167717Y100730D01*
X169187Y100121D01*
X169447D01*
X169974Y98851D01*
X169536Y98413D01*
X168927Y96943D01*
Y95351D01*
X169536Y93881D01*
X169992Y93425D01*
X170552Y92595D01*
X169992Y91766D01*
X169536Y91310D01*
X169396Y90972D01*
X117105D01*
Y139132D01*
X125432D01*
X125551Y138847D01*
X126676Y137721D01*
X128146Y137112D01*
X129737D01*
X131207Y137721D01*
X132333Y138847D01*
X132451Y139132D01*
X247551D01*
Y268433D01*
X228949D01*
Y268990D01*
X228340Y270460D01*
X227215Y271586D01*
X225745Y272194D01*
X224154D01*
X222684Y271586D01*
X221558Y270460D01*
X220949Y268990D01*
Y268433D01*
X200781D01*
X200588Y268722D01*
Y270313D01*
X199979Y271783D01*
X198854Y272908D01*
X197383Y273517D01*
X195792D01*
X194322Y272908D01*
X193197Y271783D01*
X192588Y270313D01*
Y268722D01*
X192395Y268433D01*
X138949D01*
Y269816D01*
X138341Y271286D01*
X137215Y272411D01*
X135745Y273020D01*
X134154D01*
X132684Y272411D01*
X131558Y271286D01*
X130949Y269816D01*
Y268433D01*
X88949D01*
Y268992D01*
X88341Y270462D01*
X87215Y271588D01*
X85745Y272197D01*
X84154D01*
X82684Y271588D01*
X81558Y270462D01*
X80949Y268992D01*
Y268433D01*
X60094D01*
Y295163D01*
X271369D01*
Y255333D01*
D02*
G37*
%LPC*%
G36*
X217639Y190813D02*
X216047D01*
X214577Y190204D01*
X213452Y189079D01*
X212843Y187608D01*
Y186017D01*
X213452Y184547D01*
X214577Y183422D01*
X216047Y182813D01*
X217639D01*
X219109Y183422D01*
X220234Y184547D01*
X220843Y186017D01*
Y187608D01*
X220234Y189079D01*
X219109Y190204D01*
X217639Y190813D01*
D02*
G37*
G36*
X214152Y166371D02*
X212560D01*
X211090Y165762D01*
X209965Y164636D01*
X209356Y163166D01*
Y161575D01*
X209965Y160105D01*
X210669Y159400D01*
X210910Y158511D01*
X210634Y157794D01*
X209879Y157039D01*
X209270Y155569D01*
Y153977D01*
X209879Y152507D01*
X211004Y151382D01*
X212474Y150773D01*
X214065D01*
X215535Y151382D01*
X216661Y152507D01*
X217270Y153977D01*
Y155569D01*
X216661Y157039D01*
X215956Y157743D01*
X215716Y158632D01*
X215992Y159350D01*
X216747Y160105D01*
X217356Y161575D01*
Y163166D01*
X216747Y164636D01*
X215622Y165762D01*
X214152Y166371D01*
D02*
G37*
G36*
X236364Y128209D02*
X234772D01*
X233302Y127599D01*
X232177Y126474D01*
X231568Y125004D01*
Y123413D01*
X232177Y121943D01*
X233302Y120817D01*
X234772Y120209D01*
X236364D01*
X237834Y120817D01*
X238959Y121943D01*
X239568Y123413D01*
Y125004D01*
X238959Y126474D01*
X237834Y127599D01*
X236364Y128209D01*
D02*
G37*
%LPD*%
D72*
X297101Y87912D02*
D03*
X279409Y100722D02*
D03*
X12858Y281866D02*
D03*
Y249875D02*
D03*
Y297862D02*
D03*
Y265871D02*
D03*
X13776Y211873D02*
D03*
X14280Y194065D02*
D03*
D73*
X107634Y100997D02*
D03*
D74*
X52161Y268587D02*
D03*
X119167Y215191D02*
D03*
X88768Y199314D02*
D03*
X152738Y224484D02*
D03*
X93659Y181905D02*
D03*
X203531Y101282D02*
D03*
X187369Y96147D02*
D03*
X180148Y96147D02*
D03*
X187369Y89044D02*
D03*
X169983Y104121D02*
D03*
X152680Y232456D02*
D03*
X64002Y148446D02*
D03*
X268901Y227028D02*
D03*
X85255Y175465D02*
D03*
X25367Y106879D02*
D03*
X68226Y158446D02*
D03*
X49693Y128162D02*
D03*
X71258Y283012D02*
D03*
X45191Y212222D02*
D03*
X71226Y147930D02*
D03*
X47050Y172962D02*
D03*
X274050Y161154D02*
D03*
X269050Y166153D02*
D03*
Y156153D02*
D03*
X279050D02*
D03*
Y166153D02*
D03*
X213356Y162371D02*
D03*
X236613Y218289D02*
D03*
X237505Y196506D02*
D03*
X224949Y268194D02*
D03*
X272840Y251613D02*
D03*
X266063Y196411D02*
D03*
X260142Y208425D02*
D03*
X236968Y241136D02*
D03*
X252504Y196506D02*
D03*
X235970Y227361D02*
D03*
X9449Y147598D02*
D03*
X31736Y70523D02*
D03*
X49667Y84338D02*
D03*
X39146D02*
D03*
X11264Y77940D02*
D03*
X31320Y91059D02*
D03*
X91829Y93384D02*
D03*
X96608Y110507D02*
D03*
X95507Y124598D02*
D03*
X88659Y140986D02*
D03*
X31252Y100366D02*
D03*
X9505Y153799D02*
D03*
X117332Y249885D02*
D03*
X128942Y141112D02*
D03*
X130400Y99538D02*
D03*
X134949Y269020D02*
D03*
X136578Y250706D02*
D03*
X163827Y243875D02*
D03*
X135737Y235548D02*
D03*
X177002Y232068D02*
D03*
X198788Y10056D02*
D03*
X271303Y10125D02*
D03*
X298142Y20395D02*
D03*
X295604Y206593D02*
D03*
X294350Y144073D02*
D03*
X278652Y195368D02*
D03*
X271394Y285399D02*
D03*
X211588Y285029D02*
D03*
X279607Y128490D02*
D03*
X298340Y251613D02*
D03*
X286607Y269125D02*
D03*
X216757Y100885D02*
D03*
X198376Y49101D02*
D03*
X221431Y115112D02*
D03*
X214730Y91910D02*
D03*
X250653Y72794D02*
D03*
X266916Y127947D02*
D03*
X280093Y49313D02*
D03*
X235568Y124208D02*
D03*
X240492Y60578D02*
D03*
X172927Y89044D02*
D03*
X187369Y81941D02*
D03*
X172927Y96147D02*
D03*
Y81941D02*
D03*
X179970D02*
D03*
X180148Y89044D02*
D03*
X175727Y171687D02*
D03*
X185872Y194938D02*
D03*
X213270Y154773D02*
D03*
X89046Y214264D02*
D03*
X88954Y164056D02*
D03*
X117578Y235310D02*
D03*
X216843Y186813D02*
D03*
X128601Y163782D02*
D03*
X153097Y271999D02*
D03*
X174285Y20461D02*
D03*
X221431Y134112D02*
D03*
X196588Y269517D02*
D03*
X84949Y268197D02*
D03*
M02*
