G04*
G04 #@! TF.GenerationSoftware,Altium Limited,Altium Designer,23.6.0 (18)*
G04*
G04 Layer_Color=32896*
%FSLAX44Y44*%
%MOMM*%
G71*
G04*
G04 #@! TF.SameCoordinates,26645B5F-4E51-4842-B81F-BC902FA672D2*
G04*
G04*
G04 #@! TF.FilePolarity,Positive*
G04*
G01*
G75*
%ADD10C,0.2500*%
%ADD11C,0.1000*%
%ADD12C,0.2000*%
%ADD118C,0.2100*%
D10*
X153328Y235310D02*
G03*
X153328Y235310I-1250J0D01*
G01*
X81976Y158446D02*
G03*
X81976Y158446I-1250J0D01*
G01*
D11*
X258772Y71213D02*
G03*
X258772Y71213I-500J0D01*
G01*
D12*
X136007Y137458D02*
G03*
X136007Y137458I-597J0D01*
G01*
X248667Y202925D02*
X249607D01*
X248667D02*
Y232925D01*
X249607D01*
Y202925D02*
Y232925D01*
X112578Y262060D02*
X144578D01*
X112578Y225560D02*
X144578D01*
X54553Y230438D02*
X59053D01*
X54553Y201437D02*
Y230438D01*
Y201437D02*
X59053D01*
Y230438D01*
X62553Y230938D02*
X73053D01*
X215431Y139612D02*
X227431D01*
X211931Y110112D02*
Y139111D01*
X205931Y110112D02*
X211931D01*
X205931D02*
Y139111D01*
X211931D01*
D118*
X12377Y170761D02*
X20374D01*
X17708Y173427D01*
X20374Y176093D01*
X12377D01*
X16375Y178759D02*
Y184090D01*
X12377Y221140D02*
X20374D01*
X17708Y223806D01*
X20374Y226472D01*
X12377D01*
X16375Y229138D02*
Y234469D01*
X19041Y231803D02*
X13709D01*
X294321Y117400D02*
X292988Y118733D01*
Y121398D01*
X294321Y122732D01*
X299652D01*
X300985Y121398D01*
Y118733D01*
X299652Y117400D01*
X296986D01*
Y120066D01*
X300985Y114734D02*
X292988D01*
X300985Y109402D01*
X292988D01*
Y106737D02*
X300985D01*
Y102738D01*
X299652Y101405D01*
X294321D01*
X292988Y102738D01*
Y106737D01*
X300985Y64209D02*
X295653D01*
X292988Y66875D01*
X295653Y69541D01*
X300985D01*
X292988Y72207D02*
Y76206D01*
X294321Y77538D01*
X295653Y76206D01*
Y73540D01*
X296987Y72207D01*
X298319Y73540D01*
Y77538D01*
X39068Y252762D02*
X40401Y254095D01*
X43066D01*
X44399Y252762D01*
Y251429D01*
X43066Y250096D01*
X40401D01*
X39068Y248763D01*
Y247430D01*
X40401Y246097D01*
X43066D01*
X44399Y247430D01*
X36402Y254095D02*
Y246097D01*
X32403D01*
X31070Y247430D01*
Y252762D01*
X32403Y254095D01*
X36402D01*
X28405Y246097D02*
Y251429D01*
X25739Y254095D01*
X23073Y251429D01*
Y246097D01*
Y250096D01*
X28405D01*
X39068Y268386D02*
X40401Y269718D01*
X43066D01*
X44399Y268386D01*
Y267053D01*
X43066Y265720D01*
X40401D01*
X39068Y264387D01*
Y263054D01*
X40401Y261721D01*
X43066D01*
X44399Y263054D01*
X31070Y268386D02*
X32403Y269718D01*
X35069D01*
X36402Y268386D01*
Y263054D01*
X35069Y261721D01*
X32403D01*
X31070Y263054D01*
X28405Y269718D02*
Y261721D01*
X23073D01*
X39068Y285298D02*
X40401Y286631D01*
X43066D01*
X44399Y285298D01*
Y279966D01*
X43066Y278633D01*
X40401D01*
X39068Y279966D01*
Y282632D01*
X41733D01*
X36402Y278633D02*
Y286631D01*
X31070Y278633D01*
Y286631D01*
X28405D02*
Y278633D01*
X24406D01*
X23073Y279966D01*
Y285298D01*
X24406Y286631D01*
X28405D01*
X44399Y299428D02*
X41733Y294096D01*
X39068Y299428D01*
X31070D02*
X35069D01*
X36402Y298095D01*
Y295429D01*
X35069Y294096D01*
X31070D01*
X23073Y299428D02*
X27072D01*
X28405Y298095D01*
Y295429D01*
X27072Y294096D01*
X23073D01*
M02*
