M48
;Layer_Color=9474304
;FILE_FORMAT=4:4
METRIC,LZ
;TYPE=PLATED
T1F00S00C0.3000
T2F00S00C0.7000
T3F00S00C0.7620
%
T01
X00011264Y0007794
X00031736Y00070523
X0003132Y00091059
X00031252Y00100366
X00025367Y00106879
X00039146Y00084338
X00049667
X00049693Y00128162
X00095507Y00124598
X00096608Y00110507
X00091829Y00093384
X001304Y00099538
X00169983Y00104121
X00172927Y00096147
Y00089044
Y00081941
X0017997
X00180148Y00089044
Y00096147
X00187369Y00096147
Y00089044
Y00081941
X00203531Y00101282
X00216757Y00100885
X0021473Y0009191
X00221431Y00115112
X00235568Y00124208
X00266916Y00127947
X00279607Y0012849
X00280093Y00049313
X00298142Y00020395
X00271303Y00010125
X00198788Y00010056
X00174285Y00020461
X00198376Y00049101
X00240492Y00060578
X00250653Y00072794
X00221431Y00134112
X0021327Y00154773
X00213356Y00162371
X00216843Y00186813
X00237505Y00196506
X00252504
X00266063Y00196411
X00278652Y00195368
X00295604Y00206593
X00260142Y00208425
X00268901Y00227028
X0027284Y00251613
X0029834
X00286607Y00269125
X00271394Y00285399
X00211588Y00285029
X00224949Y00268194
X00196588Y00269517
X00153097Y00271999
X00134949Y0026902
X00136578Y00250706
X00135737Y00235548
X00117578Y0023531
X00117332Y00249885
X00119167Y00215191
X00089046Y00214264
X00088768Y00199314
X00093659Y00181905
X00085255Y00175465
X00088954Y00164056
X00088659Y00140986
X00071226Y0014793
X00064002Y00148446
X00068226Y00158446
X00128601Y00163782
X00128942Y00141112
X00175727Y00171687
X00185872Y00194938
X00177002Y00232068
X0015268Y00232456
X00152738Y00224484
X00163827Y00243875
X00236968Y00241136
X0023597Y00227361
X00236613Y00218289
X0026905Y00166153
X0027405Y00161154
X0026905Y00156153
X0027905
Y00166153
X0029435Y00144073
X00084949Y00268197
X00071258Y00283012
X00052161Y00268587
X00045191Y00212222
X0004705Y00172962
X00009505Y00153799
X00009449Y00147598
T02
X00279409Y00100722
X00297101Y00087912
X0001428Y00194065
X00013776Y00211873
X00012858Y00249875
Y00265871
Y00281866
Y00297862
T03
X00107634Y00100997
M30
