G04*
G04 #@! TF.GenerationSoftware,Altium Limited,Altium Designer,23.6.0 (18)*
G04*
G04 Layer_Color=16711935*
%FSLAX44Y44*%
%MOMM*%
G71*
G04*
G04 #@! TF.SameCoordinates,26645B5F-4E51-4842-B81F-BC902FA672D2*
G04*
G04*
G04 #@! TF.FilePolarity,Negative*
G04*
G01*
G75*
%ADD18R,1.1581X1.0121*%
%ADD19R,0.7500X0.9000*%
%ADD23R,1.0121X1.1581*%
%ADD67C,1.1500*%
%ADD68C,1.6740*%
G04:AMPARAMS|DCode=75|XSize=1.1071mm|YSize=0.5358mm|CornerRadius=0.2679mm|HoleSize=0mm|Usage=FLASHONLY|Rotation=0.000|XOffset=0mm|YOffset=0mm|HoleType=Round|Shape=RoundedRectangle|*
%AMROUNDEDRECTD75*
21,1,1.1071,0.0000,0,0,0.0*
21,1,0.5713,0.5358,0,0,0.0*
1,1,0.5358,0.2857,0.0000*
1,1,0.5358,-0.2857,0.0000*
1,1,0.5358,-0.2857,0.0000*
1,1,0.5358,0.2857,0.0000*
%
%ADD75ROUNDEDRECTD75*%
%ADD78R,0.9682X1.0065*%
%ADD80R,0.8121X0.9311*%
%ADD81R,1.4000X1.2000*%
%ADD82R,0.8621X0.7565*%
%ADD83R,1.0065X0.9682*%
%ADD86R,1.1311X0.9121*%
%ADD88R,1.0000X0.7500*%
%ADD90R,0.8121X0.7581*%
%ADD93R,0.8000X0.9000*%
%ADD95R,0.7500X1.0000*%
%ADD97R,0.7581X0.8121*%
%ADD98R,3.0000X0.5000*%
%ADD99R,5.0000X0.5000*%
%ADD100R,0.5000X5.4000*%
%ADD101R,0.9000X5.4000*%
%ADD102R,0.5000X3.1400*%
%ADD103R,0.5000X3.1400*%
%ADD104R,2.7000X0.5000*%
%ADD105R,3.0000X0.5000*%
%ADD106R,0.5000X4.4400*%
%ADD107C,0.4040*%
%ADD108R,0.9500X1.1500*%
%ADD109R,1.1000X1.0500*%
%ADD110R,0.8100X0.7700*%
%ADD111R,1.2000X0.7500*%
%ADD112R,0.9000X0.5000*%
%ADD113R,1.3500X0.7500*%
G04:AMPARAMS|DCode=114|XSize=0.38mm|YSize=0.85mm|CornerRadius=0.1245mm|HoleSize=0mm|Usage=FLASHONLY|Rotation=90.000|XOffset=0mm|YOffset=0mm|HoleType=Round|Shape=RoundedRectangle|*
%AMROUNDEDRECTD114*
21,1,0.3800,0.6011,0,0,90.0*
21,1,0.1311,0.8500,0,0,90.0*
1,1,0.2489,0.3005,0.0656*
1,1,0.2489,0.3005,-0.0656*
1,1,0.2489,-0.3005,-0.0656*
1,1,0.2489,-0.3005,0.0656*
%
%ADD114ROUNDEDRECTD114*%
G04:AMPARAMS|DCode=115|XSize=1.65mm|YSize=1.05mm|CornerRadius=0.1245mm|HoleSize=0mm|Usage=FLASHONLY|Rotation=90.000|XOffset=0mm|YOffset=0mm|HoleType=Round|Shape=RoundedRectangle|*
%AMROUNDEDRECTD115*
21,1,1.6500,0.8010,0,0,90.0*
21,1,1.4010,1.0500,0,0,90.0*
1,1,0.2490,0.4005,0.7005*
1,1,0.2490,0.4005,-0.7005*
1,1,0.2490,-0.4005,-0.7005*
1,1,0.2490,-0.4005,0.7005*
%
%ADD115ROUNDEDRECTD115*%
%ADD116R,0.6250X0.6500*%
%ADD117R,1.0500X1.2000*%
D18*
X125812Y164076D02*
D03*
X109273D02*
D03*
X158507Y122734D02*
D03*
X175047D02*
D03*
X125667Y141329D02*
D03*
X109127D02*
D03*
D19*
X252468Y241136D02*
D03*
X236968D02*
D03*
X244754Y196506D02*
D03*
X260254D02*
D03*
X214830Y82008D02*
D03*
X199330D02*
D03*
X235282D02*
D03*
X250782D02*
D03*
D23*
X89046Y199241D02*
D03*
Y215781D02*
D03*
D67*
X297101Y87912D02*
D03*
X279409Y100722D02*
D03*
X12858Y281866D02*
D03*
Y249875D02*
D03*
Y297862D02*
D03*
Y265871D02*
D03*
X13776Y211873D02*
D03*
X14280Y194065D02*
D03*
D68*
X107634Y100997D02*
D03*
D75*
X260450Y227431D02*
D03*
X238131Y227425D02*
D03*
Y208425D02*
D03*
X260142D02*
D03*
Y217925D02*
D03*
D78*
X286607Y268383D02*
D03*
Y253866D02*
D03*
X196366Y268776D02*
D03*
Y254258D02*
D03*
D80*
X278652Y195368D02*
D03*
Y206179D02*
D03*
D81*
X139578Y235310D02*
D03*
X117578D02*
D03*
Y252310D02*
D03*
X139578D02*
D03*
X68226Y175446D02*
D03*
X46225D02*
D03*
Y158446D02*
D03*
X68226D02*
D03*
D82*
X294350Y144073D02*
D03*
Y157090D02*
D03*
D83*
X82249Y250338D02*
D03*
X67732D02*
D03*
X186693Y174474D02*
D03*
X201211D02*
D03*
D86*
X121659Y273020D02*
D03*
X134469D02*
D03*
X120762Y215191D02*
D03*
X133573D02*
D03*
D88*
X216843Y187812D02*
D03*
Y202813D02*
D03*
D90*
X223245Y149003D02*
D03*
Y161543D02*
D03*
D93*
X279862Y39708D02*
D03*
Y22708D02*
D03*
X197312Y39708D02*
D03*
Y22708D02*
D03*
D95*
X280692Y60418D02*
D03*
X265692D02*
D03*
X213702Y60418D02*
D03*
X198702D02*
D03*
D97*
X203531Y101282D02*
D03*
X190991D02*
D03*
X185832Y155040D02*
D03*
X198372D02*
D03*
X185872Y194938D02*
D03*
X198411D02*
D03*
D98*
X71375Y38493D02*
D03*
D99*
X36373Y12100D02*
D03*
D100*
X36873Y36586D02*
D03*
D101*
X15873Y36593D02*
D03*
D102*
X58873Y25286D02*
D03*
X130873D02*
D03*
D103*
X83873D02*
D03*
X105873D02*
D03*
D104*
X94873Y12100D02*
D03*
X141873D02*
D03*
D105*
X118375Y38493D02*
D03*
D106*
X152873Y31793D02*
D03*
D107*
X36853Y62473D02*
D03*
X15263D02*
D03*
D108*
X271394Y285399D02*
D03*
X286395D02*
D03*
X211588Y285029D02*
D03*
X196588D02*
D03*
X71258Y283012D02*
D03*
X86258D02*
D03*
D109*
X295873Y190863D02*
D03*
Y206863D02*
D03*
D110*
X44954Y191798D02*
D03*
X53755D02*
D03*
X56702Y144403D02*
D03*
X47902D02*
D03*
D111*
X67803Y225438D02*
D03*
Y206438D02*
D03*
X45803Y215938D02*
D03*
D112*
X169600Y139488D02*
D03*
Y147488D02*
D03*
Y155488D02*
D03*
Y163488D02*
D03*
Y171488D02*
D03*
Y179488D02*
D03*
Y187488D02*
D03*
X145600D02*
D03*
Y179488D02*
D03*
Y171488D02*
D03*
Y163488D02*
D03*
Y155488D02*
D03*
Y147488D02*
D03*
Y139488D02*
D03*
D113*
X196431Y134112D02*
D03*
Y115112D02*
D03*
X221431D02*
D03*
Y124612D02*
D03*
Y134112D02*
D03*
D114*
X229992Y51148D02*
D03*
Y55148D02*
D03*
Y59148D02*
D03*
Y63148D02*
D03*
Y67148D02*
D03*
X250993Y51148D02*
D03*
Y55148D02*
D03*
Y59148D02*
D03*
Y63148D02*
D03*
Y67148D02*
D03*
D115*
X240492Y59148D02*
D03*
D116*
X39027Y84338D02*
D03*
X49266D02*
D03*
D117*
X265263Y81717D02*
D03*
X279763D02*
D03*
M02*
