G04*
G04 #@! TF.GenerationSoftware,Altium Limited,Altium Designer,23.6.0 (18)*
G04*
G04 Layer_Color=128*
%FSLAX44Y44*%
%MOMM*%
G71*
G04*
G04 #@! TF.SameCoordinates,26645B5F-4E51-4842-B81F-BC902FA672D2*
G04*
G04*
G04 #@! TF.FilePolarity,Positive*
G04*
G01*
G75*
%ADD18R,1.1581X1.0121*%
%ADD19R,0.7500X0.9000*%
%ADD23R,1.0121X1.1581*%
G04:AMPARAMS|DCode=75|XSize=1.1071mm|YSize=0.5358mm|CornerRadius=0.2679mm|HoleSize=0mm|Usage=FLASHONLY|Rotation=0.000|XOffset=0mm|YOffset=0mm|HoleType=Round|Shape=RoundedRectangle|*
%AMROUNDEDRECTD75*
21,1,1.1071,0.0000,0,0,0.0*
21,1,0.5713,0.5358,0,0,0.0*
1,1,0.5358,0.2857,0.0000*
1,1,0.5358,-0.2857,0.0000*
1,1,0.5358,-0.2857,0.0000*
1,1,0.5358,0.2857,0.0000*
%
%ADD75ROUNDEDRECTD75*%
%ADD76C,0.2540*%
%ADD77R,0.8000X1.0000*%
%ADD78R,0.9682X1.0065*%
%ADD79R,0.9500X0.9000*%
%ADD80R,0.8121X0.9311*%
%ADD81R,1.4000X1.2000*%
%ADD82R,0.8621X0.7565*%
%ADD83R,1.0065X0.9682*%
%ADD84R,0.6600X0.6200*%
%ADD85R,1.0500X0.6000*%
%ADD86R,1.1311X0.9121*%
%ADD87R,0.7500X0.3500*%
%ADD88R,1.0000X0.7500*%
%ADD89R,1.2000X0.6000*%
%ADD90R,0.8121X0.7581*%
G04:AMPARAMS|DCode=91|XSize=0.23mm|YSize=0.7mm|CornerRadius=0.0495mm|HoleSize=0mm|Usage=FLASHONLY|Rotation=90.000|XOffset=0mm|YOffset=0mm|HoleType=Round|Shape=RoundedRectangle|*
%AMROUNDEDRECTD91*
21,1,0.2300,0.6011,0,0,90.0*
21,1,0.1311,0.7000,0,0,90.0*
1,1,0.0989,0.3005,0.0656*
1,1,0.0989,0.3005,-0.0656*
1,1,0.0989,-0.3005,-0.0656*
1,1,0.0989,-0.3005,0.0656*
%
%ADD91ROUNDEDRECTD91*%
G04:AMPARAMS|DCode=92|XSize=1.5mm|YSize=0.9mm|CornerRadius=0.0495mm|HoleSize=0mm|Usage=FLASHONLY|Rotation=90.000|XOffset=0mm|YOffset=0mm|HoleType=Round|Shape=RoundedRectangle|*
%AMROUNDEDRECTD92*
21,1,1.5000,0.8010,0,0,90.0*
21,1,1.4010,0.9000,0,0,90.0*
1,1,0.0990,0.4005,0.7005*
1,1,0.0990,0.4005,-0.7005*
1,1,0.0990,-0.4005,-0.7005*
1,1,0.0990,-0.4005,0.7005*
%
%ADD92ROUNDEDRECTD92*%
%ADD93R,0.8000X0.9000*%
%ADD94R,0.4750X0.5000*%
%ADD95R,0.7500X1.0000*%
%ADD96R,0.9000X1.0500*%
%ADD97R,0.7581X0.8121*%
D18*
X125812Y164076D02*
D03*
X109273D02*
D03*
X158507Y122734D02*
D03*
X175047D02*
D03*
X125667Y141329D02*
D03*
X109127D02*
D03*
D19*
X252468Y241136D02*
D03*
X236968D02*
D03*
X244754Y196506D02*
D03*
X260254D02*
D03*
X214830Y82008D02*
D03*
X199330D02*
D03*
X235282D02*
D03*
X250782D02*
D03*
D23*
X89046Y199241D02*
D03*
Y215781D02*
D03*
D75*
X260450Y227431D02*
D03*
X238131Y227425D02*
D03*
Y208425D02*
D03*
X260142D02*
D03*
Y217925D02*
D03*
D76*
X36853Y62473D02*
D03*
X15263D02*
D03*
D77*
X271394Y285399D02*
D03*
X286395D02*
D03*
X211588Y285029D02*
D03*
X196588D02*
D03*
X71258Y283012D02*
D03*
X86258D02*
D03*
D78*
X286607Y268383D02*
D03*
Y253866D02*
D03*
X196366Y268776D02*
D03*
Y254258D02*
D03*
D79*
X295873Y190863D02*
D03*
Y206863D02*
D03*
D80*
X278652Y195368D02*
D03*
Y206179D02*
D03*
D81*
X139578Y235310D02*
D03*
X117578D02*
D03*
Y252310D02*
D03*
X139578D02*
D03*
X68226Y175446D02*
D03*
X46225D02*
D03*
Y158446D02*
D03*
X68226D02*
D03*
D82*
X294350Y144073D02*
D03*
Y157090D02*
D03*
D83*
X82249Y250338D02*
D03*
X67732D02*
D03*
X186693Y174474D02*
D03*
X201211D02*
D03*
D84*
X44954Y191798D02*
D03*
X53755D02*
D03*
X56702Y144403D02*
D03*
X47902D02*
D03*
D85*
X67803Y225438D02*
D03*
Y206438D02*
D03*
X45803Y215938D02*
D03*
D86*
X121659Y273020D02*
D03*
X134469D02*
D03*
X120762Y215191D02*
D03*
X133573D02*
D03*
D87*
X169600Y139488D02*
D03*
Y147488D02*
D03*
Y155488D02*
D03*
Y163488D02*
D03*
Y171488D02*
D03*
Y179488D02*
D03*
Y187488D02*
D03*
X145600D02*
D03*
Y179488D02*
D03*
Y171488D02*
D03*
Y163488D02*
D03*
Y155488D02*
D03*
Y147488D02*
D03*
Y139488D02*
D03*
D88*
X216843Y187812D02*
D03*
Y202813D02*
D03*
D89*
X196431Y134112D02*
D03*
Y115112D02*
D03*
X221431D02*
D03*
Y124612D02*
D03*
Y134112D02*
D03*
D90*
X223245Y149003D02*
D03*
Y161543D02*
D03*
D91*
X229992Y51148D02*
D03*
Y55148D02*
D03*
Y59148D02*
D03*
Y63148D02*
D03*
Y67148D02*
D03*
X250993Y51148D02*
D03*
Y55148D02*
D03*
Y59148D02*
D03*
Y63148D02*
D03*
Y67148D02*
D03*
D92*
X240492Y59148D02*
D03*
D93*
X279862Y39708D02*
D03*
Y22708D02*
D03*
X197312Y39708D02*
D03*
Y22708D02*
D03*
D94*
X39027Y84338D02*
D03*
X49266D02*
D03*
D95*
X280692Y60418D02*
D03*
X265692D02*
D03*
X213702Y60418D02*
D03*
X198702D02*
D03*
D96*
X265263Y81717D02*
D03*
X279763D02*
D03*
D97*
X203531Y101282D02*
D03*
X190991D02*
D03*
X185832Y155040D02*
D03*
X198372D02*
D03*
X185872Y194938D02*
D03*
X198411D02*
D03*
M02*
