G04*
G04 #@! TF.GenerationSoftware,Altium Limited,Altium Designer,23.6.0 (18)*
G04*
G04 Layer_Color=65535*
%FSLAX44Y44*%
%MOMM*%
G71*
G04*
G04 #@! TF.SameCoordinates,26645B5F-4E51-4842-B81F-BC902FA672D2*
G04*
G04*
G04 #@! TF.FilePolarity,Positive*
G04*
G01*
G75*
%ADD10C,0.2500*%
%ADD11C,0.1000*%
%ADD12C,0.2000*%
%ADD13C,0.6000*%
%ADD14C,0.2540*%
D10*
X10024Y240203D02*
G03*
X10024Y240203I-1250J0D01*
G01*
X265300Y136403D02*
G03*
X265300Y136403I-1250J0D01*
G01*
X81702Y100653D02*
G03*
X81702Y100653I-1250J0D01*
G01*
X194604Y210202D02*
G03*
X194604Y210202I-1250J0D01*
G01*
X222573Y140373D02*
G03*
X222573Y140373I-1250J0D01*
G01*
D11*
X230492Y81028D02*
G03*
X230492Y82028I0J500D01*
G01*
D02*
G03*
X230492Y81028I0J-500D01*
G01*
X195838Y15136D02*
G03*
X194838Y15136I-500J0D01*
G01*
D02*
G03*
X195838Y15136I500J0D01*
G01*
X301779Y16362D02*
G03*
X302778Y16362I500J0D01*
G01*
D02*
G03*
X301779Y16362I-500J0D01*
G01*
D12*
X15474Y134099D02*
G03*
X15474Y134099I-500J0D01*
G01*
X264590Y252813D02*
G03*
X264590Y250813I0J-1000D01*
G01*
D02*
G03*
X264590Y252813I0J1000D01*
G01*
X258300Y145404D02*
Y148903D01*
Y173403D02*
Y176904D01*
X289200D02*
X289800D01*
X258300D02*
X258900D01*
X289800Y145404D02*
Y148903D01*
Y173403D02*
Y176904D01*
X289200Y145404D02*
X289800D01*
X258300D02*
X258900D01*
X192239Y5528D02*
X277674D01*
X280193Y15320D02*
Y24028D01*
X190793Y14791D02*
Y24028D01*
X269492Y74528D02*
X275492D01*
X280193Y44028D02*
Y60028D01*
X190793Y44028D02*
Y60028D01*
X195493Y74528D02*
X201493D01*
X125854Y135702D02*
Y197702D01*
X187854Y135702D02*
Y197702D01*
X125854Y135702D02*
X187854D01*
X125854Y197702D02*
X187854D01*
X223149Y159056D02*
X253149D01*
X223149Y163056D02*
X253149D01*
Y159056D02*
Y163056D01*
X223149Y159056D02*
Y163056D01*
X152753Y296735D02*
X150087D01*
X148754Y295403D01*
Y290071D01*
X150087Y288738D01*
X152753D01*
X154086Y290071D01*
Y295403D01*
X152753Y296735D01*
X156752D02*
Y288738D01*
Y291404D01*
X162083Y296735D01*
X158085Y292737D01*
X162083Y288738D01*
X233552Y288633D02*
Y296630D01*
X237551D01*
X238884Y295298D01*
Y292632D01*
X237551Y291299D01*
X233552D01*
X241549Y288633D02*
X244215D01*
X242882D01*
Y296630D01*
X241549D01*
X248214Y293965D02*
Y289966D01*
X249547Y288633D01*
X253546D01*
Y293965D01*
X256211Y288633D02*
X260210D01*
X261543Y289966D01*
X260210Y291299D01*
X257544D01*
X256211Y292632D01*
X257544Y293965D01*
X261543D01*
X58310Y297024D02*
Y290359D01*
X59643Y289026D01*
X62309D01*
X63642Y290359D01*
Y297024D01*
X66308Y289026D02*
Y297024D01*
X70307D01*
X71639Y295691D01*
Y293025D01*
X70307Y291692D01*
X66308D01*
D13*
X180854Y187702D02*
G03*
X180854Y187702I-3000J0D01*
G01*
D14*
X174949Y285949D02*
Y303194D01*
X134949Y285695D02*
Y303194D01*
X174949D01*
X264949Y285695D02*
Y303194D01*
X224949D02*
X264949D01*
X224949Y285695D02*
Y303194D01*
X44949Y285697D02*
Y303197D01*
X84949D01*
Y285697D02*
Y303197D01*
M02*
