G04*
G04 #@! TF.GenerationSoftware,Altium Limited,Altium Designer,23.6.0 (18)*
G04*
G04 Layer_Physical_Order=6*
G04 Layer_Color=16711680*
%FSLAX44Y44*%
%MOMM*%
G71*
G04*
G04 #@! TF.SameCoordinates,26645B5F-4E51-4842-B81F-BC902FA672D2*
G04*
G04*
G04 #@! TF.FilePolarity,Positive*
G04*
G01*
G75*
%ADD12C,0.2000*%
%ADD18R,1.1581X1.0121*%
%ADD19R,0.7500X0.9000*%
%ADD23R,1.0121X1.1581*%
%ADD69C,0.5000*%
%ADD70C,0.3000*%
%ADD71C,0.3500*%
%ADD72C,1.0000*%
%ADD73C,1.5240*%
%ADD74C,0.4700*%
G04:AMPARAMS|DCode=75|XSize=1.1071mm|YSize=0.5358mm|CornerRadius=0.2679mm|HoleSize=0mm|Usage=FLASHONLY|Rotation=0.000|XOffset=0mm|YOffset=0mm|HoleType=Round|Shape=RoundedRectangle|*
%AMROUNDEDRECTD75*
21,1,1.1071,0.0000,0,0,0.0*
21,1,0.5713,0.5358,0,0,0.0*
1,1,0.5358,0.2857,0.0000*
1,1,0.5358,-0.2857,0.0000*
1,1,0.5358,-0.2857,0.0000*
1,1,0.5358,0.2857,0.0000*
%
%ADD75ROUNDEDRECTD75*%
%ADD76C,0.2540*%
%ADD77R,0.8000X1.0000*%
%ADD78R,0.9682X1.0065*%
%ADD79R,0.9500X0.9000*%
%ADD80R,0.8121X0.9311*%
%ADD81R,1.4000X1.2000*%
%ADD82R,0.8621X0.7565*%
%ADD83R,1.0065X0.9682*%
%ADD84R,0.6600X0.6200*%
%ADD85R,1.0500X0.6000*%
%ADD86R,1.1311X0.9121*%
%ADD87R,0.7500X0.3500*%
%ADD88R,1.0000X0.7500*%
%ADD89R,1.2000X0.6000*%
%ADD90R,0.8121X0.7581*%
G04:AMPARAMS|DCode=91|XSize=0.23mm|YSize=0.7mm|CornerRadius=0.0495mm|HoleSize=0mm|Usage=FLASHONLY|Rotation=90.000|XOffset=0mm|YOffset=0mm|HoleType=Round|Shape=RoundedRectangle|*
%AMROUNDEDRECTD91*
21,1,0.2300,0.6011,0,0,90.0*
21,1,0.1311,0.7000,0,0,90.0*
1,1,0.0989,0.3005,0.0656*
1,1,0.0989,0.3005,-0.0656*
1,1,0.0989,-0.3005,-0.0656*
1,1,0.0989,-0.3005,0.0656*
%
%ADD91ROUNDEDRECTD91*%
G04:AMPARAMS|DCode=92|XSize=1.5mm|YSize=0.9mm|CornerRadius=0.0495mm|HoleSize=0mm|Usage=FLASHONLY|Rotation=90.000|XOffset=0mm|YOffset=0mm|HoleType=Round|Shape=RoundedRectangle|*
%AMROUNDEDRECTD92*
21,1,1.5000,0.8010,0,0,90.0*
21,1,1.4010,0.9000,0,0,90.0*
1,1,0.0990,0.4005,0.7005*
1,1,0.0990,0.4005,-0.7005*
1,1,0.0990,-0.4005,-0.7005*
1,1,0.0990,-0.4005,0.7005*
%
%ADD92ROUNDEDRECTD92*%
%ADD93R,0.8000X0.9000*%
%ADD94R,0.4750X0.5000*%
%ADD95R,0.7500X1.0000*%
%ADD96R,0.9000X1.0500*%
%ADD97R,0.7581X0.8121*%
%ADD98R,3.0000X0.5000*%
%ADD99R,5.0000X0.5000*%
%ADD100R,0.5000X5.4000*%
%ADD101R,0.9000X5.4000*%
%ADD102R,0.5000X3.1400*%
%ADD103R,0.5000X3.1400*%
%ADD104R,2.7000X0.5000*%
%ADD105R,3.0000X0.5000*%
%ADD106R,0.5000X4.4400*%
G36*
X7070Y142697D02*
Y164803D01*
X50373D01*
Y140422D01*
X10345D01*
X7070Y142697D01*
D02*
G37*
G36*
X50579Y194756D02*
Y188390D01*
X60796D01*
Y168820D01*
X75729D01*
Y172750D01*
X87832D01*
Y178173D01*
X75807D01*
Y209767D01*
X61111D01*
Y194756D01*
X50579D01*
D02*
G37*
G36*
X203535Y55490D02*
X167259D01*
Y106897D01*
X195242D01*
Y91811D01*
X203535D01*
Y55492D01*
X203535Y55490D01*
D02*
G37*
G36*
X247096Y78023D02*
Y66789D01*
X247798Y66087D01*
X247835Y66124D01*
X256482D01*
X259438Y69080D01*
X259438Y83453D01*
X256313Y86578D01*
X251783D01*
X247096Y78023D01*
D02*
G37*
G36*
X165974Y165194D02*
Y161744D01*
X176839D01*
Y150939D01*
X182722D01*
Y131111D01*
X202405D01*
Y146845D01*
X189767D01*
Y169312D01*
X192071D01*
Y179499D01*
X181521D01*
Y165194D01*
X165974D01*
X165974Y165194D01*
D02*
G37*
D12*
X229842Y58998D02*
X229992Y59148D01*
X216432Y63148D02*
X229992D01*
X211093Y46156D02*
X223935Y58998D01*
X229842D01*
X211093Y16191D02*
Y46156D01*
X198788Y10056D02*
X204958D01*
X211093Y16191D01*
X271303Y10125D02*
X277558Y16380D01*
Y20404D02*
X279862Y22708D01*
X273473Y30499D02*
X288037D01*
X298142Y20395D01*
X277558Y16380D02*
Y20404D01*
X266137Y37835D02*
X273473Y30499D01*
X266137Y37835D02*
Y42711D01*
X279862Y39708D02*
X280093Y39939D01*
X257700Y51148D02*
X266137Y42711D01*
X250993Y67148D02*
X256067D01*
X256636Y63298D02*
X265366Y72028D01*
X256067Y67148D02*
X258526Y69607D01*
X259202Y55148D02*
X260585Y56532D01*
X250993Y55148D02*
X259202D01*
X260585Y56532D02*
X262942D01*
X265692Y59282D01*
Y60418D01*
X265263Y81717D02*
X265366Y81615D01*
Y72028D02*
Y81615D01*
X256192Y78508D02*
X258526Y76175D01*
Y69607D02*
Y76175D01*
X214830Y74609D02*
X222290Y67148D01*
X229992D01*
X214830Y74609D02*
Y82008D01*
X213702Y60418D02*
X216432Y63148D01*
X195065Y20461D02*
X197312Y22708D01*
X174285Y20461D02*
X195065D01*
X250782Y81258D02*
Y82008D01*
Y81258D02*
X253532Y78508D01*
X256192D01*
X248168Y75279D02*
Y79394D01*
X250782Y82008D01*
X248168Y75279D02*
X250653Y72794D01*
X229992Y55148D02*
X237492D01*
X250993Y51148D02*
X257700D01*
X250993Y63148D02*
X251143Y63298D01*
X256636D01*
X241922Y59148D02*
X250993D01*
X196366Y268776D02*
X196588Y268997D01*
Y269517D01*
Y285029D01*
X89082Y273005D02*
Y280189D01*
X86258Y283012D02*
X89082Y280189D01*
X138578Y235310D02*
X139578D01*
X133573Y230305D02*
X138578Y235310D01*
X133573Y215191D02*
Y230305D01*
X84949Y268873D02*
X89082Y273005D01*
X82249Y250338D02*
Y264820D01*
X84949Y267520D01*
Y268197D02*
Y268873D01*
Y267520D02*
Y268197D01*
X120893Y273020D02*
X121659D01*
X117332Y249885D02*
Y269460D01*
X120893Y273020D01*
X128003Y142936D02*
X129679Y144612D01*
X127118Y142936D02*
X128942Y141112D01*
X127118Y142936D02*
X128003D01*
X129679Y144612D02*
X134184D01*
X128601Y162136D02*
Y163782D01*
X143600Y147488D02*
X145600D01*
X137172Y147601D02*
X143488D01*
X129853Y157539D02*
Y162531D01*
X134184Y144612D02*
X137172Y147601D01*
X131903Y155488D02*
X145600D01*
X129853Y157539D02*
X131903Y155488D01*
X128601Y163782D02*
X129853Y162531D01*
X143488Y147601D02*
X143600Y147488D01*
D18*
X125812Y164076D02*
D03*
X109273D02*
D03*
X158507Y122734D02*
D03*
X175047D02*
D03*
X125667Y141329D02*
D03*
X109127D02*
D03*
D19*
X252468Y241136D02*
D03*
X236968D02*
D03*
X244754Y196506D02*
D03*
X260254D02*
D03*
X214830Y82008D02*
D03*
X199330D02*
D03*
X235282D02*
D03*
X250782D02*
D03*
D23*
X89046Y199241D02*
D03*
Y215781D02*
D03*
D69*
X279409Y100722D02*
X279763Y92809D01*
X248005Y101055D02*
X279409Y100722D01*
X169983Y104121D02*
X170389D01*
X173227Y101282D01*
X190991D01*
X9449Y79756D02*
X11264Y77940D01*
X15263Y73942D01*
X280228Y60883D02*
X280692Y60418D01*
Y60222D02*
Y60418D01*
X280093Y39939D02*
Y49313D01*
X280692Y60222D02*
X281942Y58972D01*
X221431Y124612D02*
X235568D01*
X280228Y60883D02*
Y81253D01*
X279763Y81717D02*
X280228Y81253D01*
X279763Y81717D02*
Y92809D01*
X214730Y82108D02*
X214830Y82008D01*
X214730Y82108D02*
Y91910D01*
X197312Y39708D02*
Y47361D01*
X198376Y48424D01*
Y49101D01*
X235282Y82008D02*
X235486Y82212D01*
X245880Y101055D02*
X248005D01*
X244416Y99591D02*
X245880Y101055D01*
X235486Y90661D02*
X244416Y99591D01*
X235486Y82212D02*
Y90661D01*
X237505Y196506D02*
X244754D01*
X15263Y62473D02*
Y73942D01*
X9449Y79756D02*
Y147598D01*
X86485Y218342D02*
X89046Y215781D01*
X86485Y218342D02*
Y222509D01*
X83556Y225438D02*
X86485Y222509D01*
X67803Y225438D02*
X83556D01*
X45191Y212222D02*
Y215438D01*
X45691Y215938D01*
X45803D01*
X43074Y161597D02*
X47902Y156769D01*
X44954Y191798D02*
X44990D01*
X45590Y191198D01*
Y176081D02*
X47050Y174621D01*
Y172962D02*
Y174621D01*
X45590Y176081D02*
Y191198D01*
D70*
X59417Y250338D02*
X67732D01*
X52161Y257594D02*
Y268587D01*
Y257594D02*
X59417Y250338D01*
X119167Y215191D02*
X120762D01*
X121857D01*
X213734Y174474D02*
X220684Y167525D01*
X201211Y174474D02*
X213734D01*
X220684Y163834D02*
Y167525D01*
Y163834D02*
X222975Y161543D01*
X235568Y124612D02*
Y152973D01*
X223245Y161543D02*
X225475Y159312D01*
X229229D01*
X235568Y152973D01*
X222975Y161543D02*
X223245D01*
X280158Y193863D02*
X292623D01*
X278652Y195368D02*
X280158Y193863D01*
X292623D02*
X295623Y190863D01*
X248988Y223908D02*
X254971Y217925D01*
X248988Y232900D02*
X250539Y234451D01*
X248988Y223908D02*
Y232900D01*
X250539Y239207D02*
X252468Y241136D01*
X250539Y234451D02*
Y239207D01*
X60260Y153946D02*
X63726D01*
X58502Y152188D02*
X60260Y153946D01*
X56702Y144403D02*
X56902D01*
X58502Y146003D02*
Y152188D01*
X56902Y144403D02*
X58502Y146003D01*
X236795Y218107D02*
X254971D01*
X257924Y217925D02*
X260142D01*
X254971D02*
X257924D01*
X36853Y62473D02*
Y65406D01*
X179088Y128093D02*
X179090Y128095D01*
X175777Y122734D02*
X179088Y126045D01*
X175047Y122734D02*
X175777D01*
X179088Y126045D02*
Y128093D01*
X235568Y124208D02*
Y124612D01*
X237492Y55148D02*
X240492Y58148D01*
X241207Y59863D02*
X241922Y59148D01*
X240492Y58148D02*
Y59148D01*
Y60578D01*
X278652Y194774D02*
Y195368D01*
X295189Y206179D02*
X295873Y206863D01*
X278652Y206179D02*
X295189D01*
X286395Y285399D02*
X286607Y285186D01*
X196366Y254258D02*
X211013D01*
X224949Y268194D01*
X286607Y253866D02*
X295889D01*
X298143Y251613D01*
X286607Y269125D02*
Y285186D01*
Y268383D02*
Y269125D01*
X298143Y251613D02*
X298340D01*
X236613Y218289D02*
X236795Y218107D01*
X198372Y155040D02*
Y171636D01*
X201211Y174474D01*
X198411Y177274D02*
X201211Y174474D01*
X198411Y177274D02*
Y194938D01*
X31736Y70523D02*
Y70523D01*
Y70523D02*
X36853Y65406D01*
X63726Y153946D02*
X68226Y158446D01*
X121857Y215191D02*
X124918Y212130D01*
Y185822D02*
Y212130D01*
X153071Y163488D02*
X161071Y155488D01*
X169600D01*
X124918Y185822D02*
X136603Y174136D01*
Y165246D02*
Y174136D01*
X179090Y128095D02*
Y144615D01*
X169600Y171488D02*
X171793Y171682D01*
X171850Y171687D02*
X175727D01*
X171793Y171682D02*
X171850Y171687D01*
X169600Y179488D02*
X171600D01*
X171850Y179238D01*
Y171738D02*
Y179238D01*
X176217Y147488D02*
X179090Y144615D01*
X169600Y147488D02*
X176217D01*
X145600Y163488D02*
X153071D01*
X136603Y165246D02*
X138361Y163488D01*
X145600D01*
D71*
X124035Y122734D02*
X158507D01*
X109127Y141329D02*
X109611D01*
X112921Y138019D01*
Y133848D02*
Y138019D01*
Y133848D02*
X124035Y122734D01*
X152680Y232456D02*
X153097D01*
Y271999D01*
X267904Y208425D02*
X270784Y211304D01*
X268901Y226703D02*
X270784Y224821D01*
Y211304D02*
Y224821D01*
X260652Y227229D02*
X268700D01*
X260450Y227431D02*
X260652Y227229D01*
X268700D02*
X268901Y227028D01*
Y226703D02*
Y227028D01*
X260142Y208425D02*
X267904D01*
X260254Y196411D02*
X266063D01*
X260198Y196562D02*
X260254Y196506D01*
X260198Y196562D02*
Y208369D01*
X260142Y208425D02*
X260198Y208369D01*
X193035Y135362D02*
Y140140D01*
X221431Y134112D02*
X221995D01*
X223245Y135362D01*
X193035D02*
X194285Y134112D01*
X196431D01*
X294350Y157090D02*
Y164603D01*
X266111Y192842D02*
X294350Y164603D01*
X266111Y192842D02*
Y196363D01*
X260254Y196411D02*
Y196506D01*
X216843Y202813D02*
X218093D01*
X266063Y196411D02*
X266111Y196363D01*
X252504Y186965D02*
Y196236D01*
X235991Y184914D02*
X250454D01*
X252504Y186965D01*
X218093Y202813D02*
X235991Y184914D01*
X185832Y155040D02*
Y155310D01*
X177654Y163488D02*
X185832Y155310D01*
Y155040D02*
X186263Y155471D01*
Y174044D01*
X186693Y174474D01*
X223245Y135362D02*
Y149003D01*
X185832Y147343D02*
X193035Y140140D01*
X185832Y147343D02*
Y155040D01*
X169600Y163488D02*
X177654D01*
X109273Y141475D02*
Y164076D01*
X109127Y141329D02*
X109273Y141475D01*
D72*
X297101Y87912D02*
D03*
X279409Y100722D02*
D03*
X12858Y281866D02*
D03*
Y249875D02*
D03*
Y297862D02*
D03*
Y265871D02*
D03*
X13776Y211873D02*
D03*
X14280Y194065D02*
D03*
D73*
X107634Y100997D02*
D03*
D74*
X52161Y268587D02*
D03*
X119167Y215191D02*
D03*
X88768Y199314D02*
D03*
X152738Y224484D02*
D03*
X93659Y181905D02*
D03*
X203531Y101282D02*
D03*
X187369Y96147D02*
D03*
X180148Y96147D02*
D03*
X187369Y89044D02*
D03*
X169983Y104121D02*
D03*
X152680Y232456D02*
D03*
X64002Y148446D02*
D03*
X268901Y227028D02*
D03*
X85255Y175465D02*
D03*
X25367Y106879D02*
D03*
X68226Y158446D02*
D03*
X49693Y128162D02*
D03*
X71258Y283012D02*
D03*
X45191Y212222D02*
D03*
X71226Y147930D02*
D03*
X47050Y172962D02*
D03*
X274050Y161154D02*
D03*
X269050Y166153D02*
D03*
Y156153D02*
D03*
X279050D02*
D03*
Y166153D02*
D03*
X213356Y162371D02*
D03*
X236613Y218289D02*
D03*
X237505Y196506D02*
D03*
X224949Y268194D02*
D03*
X272840Y251613D02*
D03*
X266063Y196411D02*
D03*
X260142Y208425D02*
D03*
X236968Y241136D02*
D03*
X252504Y196506D02*
D03*
X235970Y227361D02*
D03*
X9449Y147598D02*
D03*
X31736Y70523D02*
D03*
X49667Y84338D02*
D03*
X39146D02*
D03*
X11264Y77940D02*
D03*
X31320Y91059D02*
D03*
X91829Y93384D02*
D03*
X96608Y110507D02*
D03*
X95507Y124598D02*
D03*
X88659Y140986D02*
D03*
X31252Y100366D02*
D03*
X9505Y153799D02*
D03*
X117332Y249885D02*
D03*
X128942Y141112D02*
D03*
X130400Y99538D02*
D03*
X134949Y269020D02*
D03*
X136578Y250706D02*
D03*
X163827Y243875D02*
D03*
X135737Y235548D02*
D03*
X177002Y232068D02*
D03*
X198788Y10056D02*
D03*
X271303Y10125D02*
D03*
X298142Y20395D02*
D03*
X295604Y206593D02*
D03*
X294350Y144073D02*
D03*
X278652Y195368D02*
D03*
X271394Y285399D02*
D03*
X211588Y285029D02*
D03*
X279607Y128490D02*
D03*
X298340Y251613D02*
D03*
X286607Y269125D02*
D03*
X216757Y100885D02*
D03*
X198376Y49101D02*
D03*
X221431Y115112D02*
D03*
X214730Y91910D02*
D03*
X250653Y72794D02*
D03*
X266916Y127947D02*
D03*
X280093Y49313D02*
D03*
X235568Y124208D02*
D03*
X240492Y60578D02*
D03*
X172927Y89044D02*
D03*
X187369Y81941D02*
D03*
X172927Y96147D02*
D03*
Y81941D02*
D03*
X179970D02*
D03*
X180148Y89044D02*
D03*
X175727Y171687D02*
D03*
X185872Y194938D02*
D03*
X213270Y154773D02*
D03*
X89046Y214264D02*
D03*
X88954Y164056D02*
D03*
X117578Y235310D02*
D03*
X216843Y186813D02*
D03*
X128601Y163782D02*
D03*
X153097Y271999D02*
D03*
X174285Y20461D02*
D03*
X221431Y134112D02*
D03*
X196588Y269517D02*
D03*
X84949Y268197D02*
D03*
D75*
X260450Y227431D02*
D03*
X238131Y227425D02*
D03*
Y208425D02*
D03*
X260142D02*
D03*
Y217925D02*
D03*
D76*
X36853Y62473D02*
D03*
X15263D02*
D03*
D77*
X271394Y285399D02*
D03*
X286395D02*
D03*
X211588Y285029D02*
D03*
X196588D02*
D03*
X71258Y283012D02*
D03*
X86258D02*
D03*
D78*
X286607Y268383D02*
D03*
Y253866D02*
D03*
X196366Y268776D02*
D03*
Y254258D02*
D03*
D79*
X295873Y190863D02*
D03*
Y206863D02*
D03*
D80*
X278652Y195368D02*
D03*
Y206179D02*
D03*
D81*
X139578Y235310D02*
D03*
X117578D02*
D03*
Y252310D02*
D03*
X139578D02*
D03*
X68226Y175446D02*
D03*
X46225D02*
D03*
Y158446D02*
D03*
X68226D02*
D03*
D82*
X294350Y144073D02*
D03*
Y157090D02*
D03*
D83*
X82249Y250338D02*
D03*
X67732D02*
D03*
X186693Y174474D02*
D03*
X201211D02*
D03*
D84*
X44954Y191798D02*
D03*
X53755D02*
D03*
X56702Y144403D02*
D03*
X47902D02*
D03*
D85*
X67803Y225438D02*
D03*
Y206438D02*
D03*
X45803Y215938D02*
D03*
D86*
X121659Y273020D02*
D03*
X134469D02*
D03*
X120762Y215191D02*
D03*
X133573D02*
D03*
D87*
X169600Y139488D02*
D03*
Y147488D02*
D03*
Y155488D02*
D03*
Y163488D02*
D03*
Y171488D02*
D03*
Y179488D02*
D03*
Y187488D02*
D03*
X145600D02*
D03*
Y179488D02*
D03*
Y171488D02*
D03*
Y163488D02*
D03*
Y155488D02*
D03*
Y147488D02*
D03*
Y139488D02*
D03*
D88*
X216843Y187812D02*
D03*
Y202813D02*
D03*
D89*
X196431Y134112D02*
D03*
Y115112D02*
D03*
X221431D02*
D03*
Y124612D02*
D03*
Y134112D02*
D03*
D90*
X223245Y149003D02*
D03*
Y161543D02*
D03*
D91*
X229992Y51148D02*
D03*
Y55148D02*
D03*
Y59148D02*
D03*
Y63148D02*
D03*
Y67148D02*
D03*
X250993Y51148D02*
D03*
Y55148D02*
D03*
Y59148D02*
D03*
Y63148D02*
D03*
Y67148D02*
D03*
D92*
X240492Y59148D02*
D03*
D93*
X279862Y39708D02*
D03*
Y22708D02*
D03*
X197312Y39708D02*
D03*
Y22708D02*
D03*
D94*
X39027Y84338D02*
D03*
X49266D02*
D03*
D95*
X280692Y60418D02*
D03*
X265692D02*
D03*
X213702Y60418D02*
D03*
X198702D02*
D03*
D96*
X265263Y81717D02*
D03*
X279763D02*
D03*
D97*
X203531Y101282D02*
D03*
X190991D02*
D03*
X185832Y155040D02*
D03*
X198372D02*
D03*
X185872Y194938D02*
D03*
X198411D02*
D03*
D98*
X71375Y38493D02*
D03*
D99*
X36373Y12100D02*
D03*
D100*
X36873Y36586D02*
D03*
D101*
X15873Y36593D02*
D03*
D102*
X58873Y25286D02*
D03*
X130873D02*
D03*
D103*
X83873D02*
D03*
X105873D02*
D03*
D104*
X94873Y12100D02*
D03*
X141873D02*
D03*
D105*
X118375Y38493D02*
D03*
D106*
X152873Y31793D02*
D03*
M02*
