G04*
G04 #@! TF.GenerationSoftware,Altium Limited,Altium Designer,23.6.0 (18)*
G04*
G04 Layer_Physical_Order=3*
G04 Layer_Color=16440176*
%FSLAX44Y44*%
%MOMM*%
G71*
G04*
G04 #@! TF.SameCoordinates,26645B5F-4E51-4842-B81F-BC902FA672D2*
G04*
G04*
G04 #@! TF.FilePolarity,Positive*
G04*
G01*
G75*
%ADD12C,0.2000*%
%ADD69C,0.5000*%
%ADD70C,0.3000*%
%ADD72C,1.0000*%
%ADD73C,1.5240*%
%ADD74C,0.4700*%
D12*
X88125Y224316D02*
G03*
X91665Y220776I3540J0D01*
G01*
X88125Y229189D02*
G03*
X81046Y229189I-3540J0D01*
G01*
X77505Y220776D02*
G03*
X81046Y224316I0J3540D01*
G01*
X118263Y206438D02*
G03*
X114724Y202873I0J-3540D01*
G01*
X111209Y199232D02*
G03*
X114724Y202797I-25J3540D01*
G01*
X107644Y202746D02*
G03*
X111209Y199232I3540J25D01*
G01*
X107562Y214347D02*
G03*
X103997Y217862I-3540J-25D01*
G01*
X103997D02*
G03*
X100482Y214297I25J-3540D01*
G01*
X96973Y206438D02*
G03*
X100513Y210003I0J3540D01*
G01*
X91665Y220776D02*
X107069D01*
X88125Y224316D02*
Y229189D01*
X81046Y224316D02*
Y229189D01*
X76505Y220776D02*
X77505D01*
X126425Y206438D02*
X188617D01*
X118263D02*
X126425D01*
X114724Y202873D02*
X114724Y202873D01*
X114724Y202797D01*
X111209Y199232D02*
Y199232D01*
X111209Y199232D02*
X111209Y199232D01*
X107562Y214347D02*
X107644Y202746D01*
X103997Y217862D02*
X103997Y217862D01*
X103997D02*
X103997D01*
X103997Y217862D02*
X103997Y217862D01*
X100482Y214297D02*
X100513Y210003D01*
X80067Y206438D02*
X96973D01*
X62783D02*
X80067D01*
X19686Y249535D02*
X62783Y206438D01*
X57953Y220776D02*
X76505D01*
X107069D02*
X133582D01*
X42403Y236326D02*
X57953Y220776D01*
X139435Y214923D02*
X190223D01*
X133582Y220776D02*
X139435Y214923D01*
X12858Y249875D02*
X13198Y249535D01*
X19686D01*
X190223Y214923D02*
X201097Y204049D01*
X194526Y160571D02*
Y200529D01*
X200324Y154773D02*
X213270D01*
X194526Y160571D02*
X200324Y154773D01*
X128601Y163782D02*
X146466Y145918D01*
X204415D02*
X213270Y154773D01*
X146466Y145918D02*
X204415D01*
X128942Y141112D02*
X208070D01*
X218270Y151312D02*
Y157457D01*
X208070Y141112D02*
X218270Y151312D01*
X30432Y248296D02*
X42403Y236326D01*
X12858Y265871D02*
X30432Y248296D01*
X188617Y206438D02*
X194526Y200529D01*
X201097Y168294D02*
Y204049D01*
Y168294D02*
X207020Y162371D01*
X213356D01*
X209255Y232068D02*
X246519Y269333D01*
X177002Y232068D02*
X209255D01*
X246519Y269333D02*
X286400D01*
X286607Y269125D01*
X213356Y162371D02*
X218270Y157457D01*
D69*
X297101Y87912D02*
X297189Y88000D01*
X279607Y128490D02*
X297189Y110907D01*
Y88000D02*
Y110907D01*
X280093Y69482D02*
X297101Y87912D01*
X269455Y49313D02*
X280093D01*
Y69482D01*
X203662Y91910D02*
X214730D01*
X110654Y131098D02*
X163445D01*
X202634Y91910D01*
X214730D02*
X245580D01*
X198376Y49101D02*
Y75556D01*
X214730Y91910D01*
X245580D02*
X266916Y113246D01*
Y127947D01*
X209390Y38086D02*
X258228D01*
X269455Y49313D01*
X198376Y49101D02*
X209390Y38086D01*
X13776Y211873D02*
X29879D01*
X110654Y131098D01*
D70*
X59429Y128059D02*
X71226Y139855D01*
X49796Y128059D02*
X59429D01*
X49693Y128162D02*
X49796Y128059D01*
X71226Y139855D02*
Y147930D01*
D72*
X297101Y87912D02*
D03*
X279409Y100722D02*
D03*
X12858Y281866D02*
D03*
Y249875D02*
D03*
Y297862D02*
D03*
Y265871D02*
D03*
X13776Y211873D02*
D03*
X14280Y194065D02*
D03*
D73*
X107634Y100997D02*
D03*
D74*
X52161Y268587D02*
D03*
X119167Y215191D02*
D03*
X88768Y199314D02*
D03*
X152738Y224484D02*
D03*
X93659Y181905D02*
D03*
X203531Y101282D02*
D03*
X187369Y96147D02*
D03*
X180148Y96147D02*
D03*
X187369Y89044D02*
D03*
X169983Y104121D02*
D03*
X152680Y232456D02*
D03*
X64002Y148446D02*
D03*
X268901Y227028D02*
D03*
X85255Y175465D02*
D03*
X25367Y106879D02*
D03*
X68226Y158446D02*
D03*
X49693Y128162D02*
D03*
X71258Y283012D02*
D03*
X45191Y212222D02*
D03*
X71226Y147930D02*
D03*
X47050Y172962D02*
D03*
X274050Y161154D02*
D03*
X269050Y166153D02*
D03*
Y156153D02*
D03*
X279050D02*
D03*
Y166153D02*
D03*
X213356Y162371D02*
D03*
X236613Y218289D02*
D03*
X237505Y196506D02*
D03*
X224949Y268194D02*
D03*
X272840Y251613D02*
D03*
X266063Y196411D02*
D03*
X260142Y208425D02*
D03*
X236968Y241136D02*
D03*
X252504Y196506D02*
D03*
X235970Y227361D02*
D03*
X9449Y147598D02*
D03*
X31736Y70523D02*
D03*
X49667Y84338D02*
D03*
X39146D02*
D03*
X11264Y77940D02*
D03*
X31320Y91059D02*
D03*
X91829Y93384D02*
D03*
X96608Y110507D02*
D03*
X95507Y124598D02*
D03*
X88659Y140986D02*
D03*
X31252Y100366D02*
D03*
X9505Y153799D02*
D03*
X117332Y249885D02*
D03*
X128942Y141112D02*
D03*
X130400Y99538D02*
D03*
X134949Y269020D02*
D03*
X136578Y250706D02*
D03*
X163827Y243875D02*
D03*
X135737Y235548D02*
D03*
X177002Y232068D02*
D03*
X198788Y10056D02*
D03*
X271303Y10125D02*
D03*
X298142Y20395D02*
D03*
X295604Y206593D02*
D03*
X294350Y144073D02*
D03*
X278652Y195368D02*
D03*
X271394Y285399D02*
D03*
X211588Y285029D02*
D03*
X279607Y128490D02*
D03*
X298340Y251613D02*
D03*
X286607Y269125D02*
D03*
X216757Y100885D02*
D03*
X198376Y49101D02*
D03*
X221431Y115112D02*
D03*
X214730Y91910D02*
D03*
X250653Y72794D02*
D03*
X266916Y127947D02*
D03*
X280093Y49313D02*
D03*
X235568Y124208D02*
D03*
X240492Y60578D02*
D03*
X172927Y89044D02*
D03*
X187369Y81941D02*
D03*
X172927Y96147D02*
D03*
Y81941D02*
D03*
X179970D02*
D03*
X180148Y89044D02*
D03*
X175727Y171687D02*
D03*
X185872Y194938D02*
D03*
X213270Y154773D02*
D03*
X89046Y214264D02*
D03*
X88954Y164056D02*
D03*
X117578Y235310D02*
D03*
X216843Y186813D02*
D03*
X128601Y163782D02*
D03*
X153097Y271999D02*
D03*
X174285Y20461D02*
D03*
X221431Y134112D02*
D03*
X196588Y269517D02*
D03*
X84949Y268197D02*
D03*
M02*
