G04*
G04 #@! TF.GenerationSoftware,Altium Limited,Altium Designer,23.6.0 (18)*
G04*
G04 Layer_Color=8388736*
%FSLAX44Y44*%
%MOMM*%
G71*
G04*
G04 #@! TF.SameCoordinates,26645B5F-4E51-4842-B81F-BC902FA672D2*
G04*
G04*
G04 #@! TF.FilePolarity,Negative*
G04*
G01*
G75*
%ADD17R,1.2500X1.2200*%
%ADD18R,1.1581X1.0121*%
%ADD19R,0.7500X0.9000*%
%ADD23R,1.0121X1.1581*%
%ADD31R,0.4500X0.6750*%
%ADD34R,0.9000X0.7500*%
%ADD35R,0.8621X0.7350*%
%ADD38R,0.7350X0.8621*%
%ADD42R,0.8000X0.9000*%
%ADD43R,0.7565X0.8621*%
%ADD46C,0.2520*%
%ADD47C,1.5300*%
%ADD48R,0.7500X0.7700*%
%ADD49R,0.7500X0.8500*%
%ADD50R,0.8000X0.5000*%
%ADD51R,1.9500X1.6500*%
%ADD52R,1.9500X1.5000*%
%ADD53R,0.9500X1.3500*%
%ADD54R,0.9100X1.3500*%
%ADD55R,0.8500X1.3500*%
%ADD56R,0.6500X0.6500*%
%ADD57R,0.7700X0.7500*%
%ADD58R,1.0000X0.4500*%
%ADD59R,0.4500X1.0000*%
%ADD60O,1.8500X0.7500*%
%ADD61O,0.7500X1.8500*%
%ADD62R,1.4500X0.6500*%
%ADD63R,1.0200X0.6500*%
%ADD64R,2.8500X1.1500*%
%ADD65R,0.7200X0.7000*%
%ADD66R,2.1500X1.6500*%
%ADD67C,1.1500*%
%ADD68C,1.6740*%
G36*
X264843Y150440D02*
X265237Y150046D01*
X265450Y149532D01*
Y149253D01*
Y142153D01*
X262650D01*
Y149253D01*
Y149532D01*
X262863Y150046D01*
X263257Y150440D01*
X263771Y150653D01*
X264328D01*
X264843Y150440D01*
D02*
G37*
G36*
X269843D02*
X270237Y150046D01*
X270450Y149532D01*
Y149253D01*
Y142153D01*
X267650D01*
X267650Y149253D01*
Y149532D01*
X267863Y150046D01*
X268257Y150440D01*
X268771Y150653D01*
X269328D01*
X269843Y150440D01*
D02*
G37*
G36*
X274843D02*
X275237Y150046D01*
X275450Y149532D01*
Y149253D01*
Y142153D01*
X272650D01*
Y149253D01*
Y149532D01*
X272863Y150046D01*
X273257Y150440D01*
X273771Y150653D01*
X274328D01*
X274843Y150440D01*
D02*
G37*
G36*
X279843D02*
X280237Y150046D01*
X280450Y149532D01*
Y149253D01*
X280450D01*
Y142153D01*
X277650D01*
Y149253D01*
Y149532D01*
X277863Y150046D01*
X278257Y150440D01*
X278771Y150653D01*
X279328D01*
X279843Y150440D01*
D02*
G37*
G36*
X284843D02*
X285237Y150046D01*
X285450Y149532D01*
Y149253D01*
Y142153D01*
X282650D01*
Y149253D01*
Y149532D01*
X282863Y150046D01*
X283257Y150440D01*
X283771Y150653D01*
X284328D01*
X284843Y150440D01*
D02*
G37*
G36*
X285450Y173053D02*
Y172775D01*
X285237Y172260D01*
X284843Y171866D01*
X284328Y171653D01*
X283771D01*
X283257Y171866D01*
X282863Y172260D01*
X282650Y172775D01*
Y173053D01*
Y180153D01*
X285450D01*
Y173053D01*
D02*
G37*
G36*
X280450D02*
Y172775D01*
X280237Y172260D01*
X279843Y171866D01*
X279328Y171653D01*
X278771D01*
X278257Y171866D01*
X277863Y172260D01*
X277650Y172775D01*
Y173053D01*
Y180153D01*
X280450D01*
X280450Y173053D01*
D02*
G37*
G36*
X275450D02*
Y172775D01*
X275237Y172260D01*
X274843Y171866D01*
X274328Y171653D01*
X273771D01*
X273257Y171866D01*
X272863Y172260D01*
X272650Y172775D01*
Y173053D01*
Y180153D01*
X275450D01*
Y173053D01*
D02*
G37*
G36*
X270450D02*
Y172775D01*
X270237Y172260D01*
X269843Y171866D01*
X269328Y171653D01*
X268771D01*
X268257Y171866D01*
X267863Y172260D01*
X267650Y172775D01*
Y173053D01*
X267650D01*
Y180153D01*
X270450D01*
Y173053D01*
D02*
G37*
G36*
X265450D02*
Y172775D01*
X265237Y172260D01*
X264843Y171866D01*
X264328Y171653D01*
X263771D01*
X263257Y171866D01*
X262863Y172260D01*
X262650Y172775D01*
Y173053D01*
Y180153D01*
X265450D01*
Y173053D01*
D02*
G37*
G36*
X284800Y168403D02*
X291800D01*
Y165903D01*
X284800D01*
Y164403D01*
X291800D01*
Y161903D01*
X284800D01*
Y160403D01*
X291800D01*
Y157903D01*
X284800D01*
Y156403D01*
X291800D01*
Y153903D01*
X284800D01*
Y152653D01*
X263300D01*
Y153903D01*
X256300D01*
Y156403D01*
X263300D01*
Y157903D01*
X256300D01*
Y160403D01*
X263300D01*
Y161903D01*
X256300D01*
Y164403D01*
X263300D01*
Y165903D01*
X256300D01*
Y168403D01*
X263300D01*
Y169653D01*
X284800D01*
Y168403D01*
D02*
G37*
D17*
X45524Y230203D02*
D03*
X16024D02*
D03*
D18*
X28318Y211889D02*
D03*
X44858D02*
D03*
D19*
X279607Y128490D02*
D03*
X266916Y127947D02*
D03*
X251416D02*
D03*
X295106Y128490D02*
D03*
D23*
X152653Y99488D02*
D03*
Y82949D02*
D03*
X130400Y99538D02*
D03*
Y82998D02*
D03*
X295873Y190323D02*
D03*
Y206863D02*
D03*
D31*
X58842Y64384D02*
D03*
X49592D02*
D03*
D34*
X163827Y227376D02*
D03*
X142291Y242943D02*
D03*
Y227443D02*
D03*
D35*
X89046Y214264D02*
D03*
Y226572D02*
D03*
D38*
X216757Y100885D02*
D03*
X229065D02*
D03*
X241958Y101058D02*
D03*
X254266D02*
D03*
D42*
X252504Y196506D02*
D03*
X237505D02*
D03*
X251612Y218289D02*
D03*
X236613D02*
D03*
X280401Y217983D02*
D03*
X265401D02*
D03*
D43*
X279080Y196411D02*
D03*
X266063D02*
D03*
D46*
X274050Y143553D02*
D03*
X264050Y146403D02*
D03*
X269050D02*
D03*
X279050Y143553D02*
D03*
X284050D02*
D03*
Y175903D02*
D03*
X279050D02*
D03*
X274050Y178653D02*
D03*
X269050D02*
D03*
X264050D02*
D03*
D47*
X274050Y161154D02*
D03*
D48*
X20414Y143611D02*
D03*
X29614D02*
D03*
X21490Y79979D02*
D03*
X30690D02*
D03*
X20279Y153427D02*
D03*
X29478D02*
D03*
X22136Y70071D02*
D03*
X31336D02*
D03*
X49810Y74298D02*
D03*
X59010D02*
D03*
X73226Y148695D02*
D03*
X64026D02*
D03*
X78072Y84129D02*
D03*
X68872D02*
D03*
X58867Y84338D02*
D03*
X49667D02*
D03*
D49*
X17726Y102231D02*
D03*
Y91230D02*
D03*
X57226Y161446D02*
D03*
Y172446D02*
D03*
D50*
X17483Y119973D02*
D03*
Y111473D02*
D03*
D51*
X286743Y34028D02*
D03*
X184242D02*
D03*
D52*
X286743Y69828D02*
D03*
X184242D02*
D03*
D53*
X207992Y70578D02*
D03*
X262993D02*
D03*
D54*
X220292D02*
D03*
X250692D02*
D03*
D55*
X240492D02*
D03*
X230492D02*
D03*
D56*
X20975Y134099D02*
D03*
X29975D02*
D03*
D57*
X31210Y91086D02*
D03*
Y100286D02*
D03*
D58*
X76203Y108153D02*
D03*
Y113153D02*
D03*
Y118153D02*
D03*
Y123153D02*
D03*
Y128153D02*
D03*
X37202D02*
D03*
Y123153D02*
D03*
Y118153D02*
D03*
Y113153D02*
D03*
Y108153D02*
D03*
D59*
X66702Y137653D02*
D03*
X61703D02*
D03*
X56702D02*
D03*
X51703D02*
D03*
X46702D02*
D03*
Y98653D02*
D03*
X51703D02*
D03*
X56702D02*
D03*
X61703D02*
D03*
X66702D02*
D03*
D60*
X200354Y194702D02*
D03*
Y186702D02*
D03*
Y178702D02*
D03*
Y170702D02*
D03*
Y162701D02*
D03*
Y154701D02*
D03*
Y146701D02*
D03*
Y138702D02*
D03*
X113354D02*
D03*
Y146701D02*
D03*
Y154701D02*
D03*
Y162701D02*
D03*
Y170702D02*
D03*
Y178702D02*
D03*
Y186702D02*
D03*
Y194702D02*
D03*
D61*
X184854Y123202D02*
D03*
X176854D02*
D03*
X168854D02*
D03*
X160854D02*
D03*
X152854D02*
D03*
X144854D02*
D03*
X136854D02*
D03*
X128854D02*
D03*
Y210201D02*
D03*
X136854D02*
D03*
X144854D02*
D03*
X152854D02*
D03*
X160854D02*
D03*
X168854D02*
D03*
X176854D02*
D03*
X184854D02*
D03*
D62*
X171288Y10056D02*
D03*
X287803Y10125D02*
D03*
D63*
X184438Y10056D02*
D03*
X300953Y10125D02*
D03*
D64*
X238149Y150056D02*
D03*
Y172056D02*
D03*
D65*
X272840Y251613D02*
D03*
X298340D02*
D03*
X272840Y240012D02*
D03*
X298340D02*
D03*
D66*
X264949Y268194D02*
D03*
X44949Y268197D02*
D03*
X134949Y269020D02*
D03*
X84949Y268197D02*
D03*
X174949Y268194D02*
D03*
X224949D02*
D03*
D67*
X297101Y87912D02*
D03*
X279409Y100722D02*
D03*
X12858Y281866D02*
D03*
Y249875D02*
D03*
Y297862D02*
D03*
Y265871D02*
D03*
X13776Y211873D02*
D03*
X14280Y194065D02*
D03*
D68*
X107634Y100997D02*
D03*
M02*
